<svg width="25" height="25" viewBox="0 0 25 25" fill="none" xmlns="http://www.w3.org/2000/svg">
<path d="M24.0013 0H18.0013C17.7361 0 17.4817 0.105357 17.2942 0.292893C17.1066 0.48043 17.0013 0.734784 17.0013 1C17.0013 1.26522 17.1066 1.51957 17.2942 1.70711C17.4817 1.89464 17.7361 2 18.0013 2H21.5875L16.3288 7.25875C14.3424 5.63509 11.808 4.83697 9.2497 5.02946C6.69141 5.22195 4.30495 6.39033 2.58392 8.29295C0.862878 10.1956 -0.0610811 12.6869 0.00313652 15.2516C0.0673542 17.8163 1.11484 20.2582 2.92894 22.0723C4.74304 23.8864 7.18497 24.9339 9.74969 24.9981C12.3144 25.0624 14.8057 24.1384 16.7083 22.4174C18.6109 20.6963 19.7793 18.3099 19.9718 15.7516C20.1643 13.1933 19.3662 10.6589 17.7425 8.6725L23.0013 3.415V7C23.0013 7.26522 23.1066 7.51957 23.2942 7.70711C23.4817 7.89464 23.7361 8 24.0013 8C24.2665 8 24.5208 7.89464 24.7084 7.70711C24.8959 7.51957 25.0013 7.26522 25.0013 7V1C25.0013 0.734784 24.8959 0.48043 24.7084 0.292893C24.5208 0.105357 24.2665 0 24.0013 0ZM15.6563 20.6612C14.5373 21.7797 13.1118 22.5413 11.5601 22.8497C10.0083 23.1581 8.39999 22.9994 6.93839 22.3938C5.4768 21.7882 4.22758 20.7628 3.34869 19.4473C2.46979 18.1318 2.00069 16.5852 2.00069 15.0031C2.00069 13.421 2.46979 11.8745 3.34869 10.5589C4.22758 9.24342 5.4768 8.21804 6.93839 7.61243C8.39999 7.00683 10.0083 6.84819 11.5601 7.15658C13.1118 7.46497 14.5373 8.22654 15.6563 9.345C17.1543 10.847 17.9955 12.8818 17.9955 15.0031C17.9955 17.1245 17.1543 19.1592 15.6563 20.6612Z" fill="#6457F3"/>
</svg>
