<svg width="18" height="16" viewBox="0 0 18 16" fill="none" xmlns="http://www.w3.org/2000/svg">
<path d="M7.08001 12.8428H0.779297" stroke="#6941C6" stroke-width="1.5" stroke-linecap="round" stroke-linejoin="round"/>
<path d="M9.89062 3.15042H16.1913" stroke="#6941C6" stroke-width="1.5" stroke-linecap="round" stroke-linejoin="round"/>
<path fill-rule="evenodd" clip-rule="evenodd" d="M5.47629 3.09625C5.47629 1.8006 4.41813 0.75 3.11314 0.75C1.80816 0.75 0.75 1.8006 0.75 3.09625C0.75 4.39191 1.80816 5.44251 3.11314 5.44251C4.41813 5.44251 5.47629 4.39191 5.47629 3.09625Z" stroke="#6941C6" stroke-width="1.5" stroke-linecap="round" stroke-linejoin="round"/>
<path fill-rule="evenodd" clip-rule="evenodd" d="M16.7497 12.8038C16.7497 11.5081 15.6924 10.4575 14.3874 10.4575C13.0816 10.4575 12.0234 11.5081 12.0234 12.8038C12.0234 14.0994 13.0816 15.15 14.3874 15.15C15.6924 15.15 16.7497 14.0994 16.7497 12.8038Z" stroke="#6941C6" stroke-width="1.5" stroke-linecap="round" stroke-linejoin="round"/>
</svg>
