<svg width="21" height="22" viewBox="0 0 21 22" fill="none" xmlns="http://www.w3.org/2000/svg">
<path d="M7.16112 20.2626V16.9623C7.16112 16.1199 7.84908 15.4369 8.69772 15.4369H11.7999C12.2074 15.4369 12.5983 15.5976 12.8864 15.8837C13.1746 16.1698 13.3365 16.5578 13.3365 16.9623V20.2626C13.3339 20.6129 13.4723 20.9497 13.7209 21.1982C13.9694 21.4468 14.3077 21.5866 14.6605 21.5866H16.7769C17.7654 21.5892 18.7142 21.2011 19.4141 20.5082C20.114 19.8152 20.5073 18.8742 20.5073 17.893V8.49094C20.5073 7.69828 20.1533 6.9464 19.5409 6.43785L12.3411 0.729486C11.0887 -0.271385 9.29424 -0.239069 8.07921 0.806237L1.04373 6.43785C0.40231 6.93141 0.0189447 7.68552 0 8.49094V17.8834C0 19.9286 1.67014 21.5866 3.73035 21.5866H5.79848C6.53128 21.5866 7.12682 20.9997 7.13213 20.2722L7.16112 20.2626Z" fill="#727A82"/>
</svg>
