<svg width="20" height="29" viewBox="0 0 20 29" fill="none" xmlns="http://www.w3.org/2000/svg">
<path d="M20 9.99988C20 8.06471 19.4385 6.17111 18.3835 4.54875C17.3286 2.92639 15.8257 1.64497 14.0569 0.85989C12.2881 0.0748133 10.3295 -0.180185 8.41872 0.12582C6.50789 0.431825 4.7269 1.28569 3.29175 2.58385C1.8566 3.88201 0.828936 5.5687 0.333405 7.43935C-0.162125 9.31001 -0.104236 11.2843 0.500051 13.1227C1.10434 14.9611 2.22906 16.5846 3.73781 17.7965C5.24657 19.0083 7.07453 19.7564 9 19.9499V22.9999H5C4.73478 22.9999 4.48043 23.1052 4.29289 23.2928C4.10536 23.4803 4 23.7347 4 23.9999C4 24.2651 4.10536 24.5195 4.29289 24.707C4.48043 24.8945 4.73478 24.9999 5 24.9999H9V27.9999C9 28.2651 9.10536 28.5195 9.29289 28.707C9.48043 28.8945 9.73478 28.9999 10 28.9999C10.2652 28.9999 10.5196 28.8945 10.7071 28.707C10.8946 28.5195 11 28.2651 11 27.9999V24.9999H15C15.2652 24.9999 15.5196 24.8945 15.7071 24.707C15.8946 24.5195 16 24.2651 16 23.9999C16 23.7347 15.8946 23.4803 15.7071 23.2928C15.5196 23.1052 15.2652 22.9999 15 22.9999H11V19.9499C13.4654 19.699 15.7503 18.5428 17.4127 16.705C19.0751 14.8671 19.997 12.4781 20 9.99988ZM2 9.99988C2 8.41763 2.46919 6.87091 3.34824 5.55532C4.22729 4.23973 5.47672 3.21434 6.93853 2.60884C8.40034 2.00334 10.0089 1.84492 11.5607 2.1536C13.1126 2.46228 14.538 3.22421 15.6569 4.34303C16.7757 5.46185 17.5376 6.88731 17.8463 8.43916C18.155 9.99101 17.9965 11.5995 17.391 13.0613C16.7855 14.5232 15.7602 15.7726 14.4446 16.6516C13.129 17.5307 11.5823 17.9999 10 17.9999C7.87898 17.9976 5.84549 17.154 4.3457 15.6542C2.84592 14.1544 2.00232 12.1209 2 9.99988Z" fill="#6457F3"/>
</svg>
