<svg width="24" height="16" viewBox="0 0 24 16" fill="none" xmlns="http://www.w3.org/2000/svg">
<path d="M20.4 5.71429H19.8L15.7208 0.857857C15.4958 0.590209 15.2106 0.374146 14.8862 0.225654C14.5618 0.0771629 14.2064 4.28606e-05 13.8465 0H5.82488C4.8435 0 3.96113 0.568929 3.59663 1.43679L1.8 5.795C0.7665 6.05 0 6.93607 0 8V12C0 12.3157 0.2685 12.5714 0.6 12.5714H2.4C2.4 14.465 4.01175 16 6 16C7.98825 16 9.6 14.465 9.6 12.5714H14.4C14.4 14.465 16.0118 16 18 16C19.9883 16 21.6 14.465 21.6 12.5714H23.4C23.7315 12.5714 24 12.3157 24 12V9.14286C24 7.24929 22.3883 5.71429 20.4 5.71429ZM6 14.2857C5.00738 14.2857 4.2 13.5168 4.2 12.5714C4.2 11.6261 5.00738 10.8571 6 10.8571C6.99263 10.8571 7.8 11.6261 7.8 12.5714C7.8 13.5168 6.99263 14.2857 6 14.2857ZM8.7 5.71429H4.38488L5.82488 2.28571H8.7V5.71429ZM10.5 5.71429V2.28571H13.8465L16.7265 5.71429H10.5ZM18 14.2857C17.0074 14.2857 16.2 13.5168 16.2 12.5714C16.2 11.6261 17.0074 10.8571 18 10.8571C18.9926 10.8571 19.8 11.6261 19.8 12.5714C19.8 13.5168 18.9926 14.2857 18 14.2857Z" fill="#6941C6"/>
</svg>
